<svg width="1423" height="1232" viewBox="0 0 1423 1232" fill="none" xmlns="http://www.w3.org/2000/svg">
    <rect width="1423" height="500" fill="none" /> <!-- Prazan prostor na vrhu -->

  <g clip-path="url(#clip0_1_38)">
    <g filter="url(#filter0_f_1_38)">
      <path d="M880.141 333.763C819.379 263.356 905.459 169.155 956.094 130.855C1122.37 35.5123 1220.9 431.55 1192.16 475.554C1163.42 519.559 1025.89 541.561 1054.63 475.554C1083.37 409.548 956.094 421.771 880.141 333.763Z" fill="#7958EF" />
      <path d="M723.347 469.429C755.636 391.551 640.702 335.86 579.199 317.748C579.199 277.904 638.139 269.452 667.61 270.207C706.049 301.901 790.231 362.574 819.445 351.707C855.962 338.123 955.904 403.776 967.436 428.679C978.968 453.582 963.592 555.457 923.231 630.166C882.87 704.875 706.049 627.902 688.751 616.583C671.454 605.263 682.985 566.777 723.347 469.429Z" fill="#9477F5" />
      <path d="M826.44 481.13C852.849 412.066 794.162 249.765 588.758 215.233C544.742 225.593 461.407 251.146 480.187 270.484C503.662 294.657 691.46 550.194 679.723 564.007C667.985 577.82 277.717 564.007 265.98 605.445C254.242 646.884 486.055 771.199 635.707 760.84C785.359 750.48 800.031 550.194 826.44 481.13Z" fill="#5425DA" fill-opacity="0.6" />
    </g>
    <g style="mix-blend-mode:color-dodge" filter="url(#filter1_f_1_38)">
      <path d="M696.935 506.28C633.266 432.506 723.463 333.798 776.52 293.666C950.748 193.764 1053.99 608.744 1023.88 654.853C993.767 700.962 849.653 724.016 879.766 654.853C909.88 585.69 776.52 598.498 696.935 506.28Z" fill="#7958EF" />
      <path d="M466.378 496.376C500.211 414.774 379.781 356.418 315.336 337.441C315.336 295.69 377.095 286.834 407.975 287.625C448.253 320.835 536.461 384.41 567.072 373.023C605.336 358.79 710.059 427.583 722.142 453.677C734.225 479.771 718.114 586.519 675.823 664.801C633.531 743.083 448.253 662.429 430.128 650.568C412.003 638.707 424.086 598.38 466.378 496.376Z" fill="#9477F5" />
      <path d="M1220.43 655.953C1248.11 583.586 1186.61 413.523 971.384 377.339C925.264 388.194 837.943 414.97 857.621 435.233C882.219 460.561 1079 728.321 1066.7 742.794C1054.4 757.268 645.467 742.794 633.168 786.215C620.869 829.635 863.77 959.897 1020.58 949.041C1177.39 938.186 1192.76 728.321 1220.43 655.953Z" fill="#5425DA" fill-opacity="0.6" />
    </g>
  </g>
  <defs>
    <filter id="filter0_f_1_38" x="85.5506" y="-113.906" width="1291.57" height="1205.36" filterUnits="userSpaceOnUse" color-interpolation-filters="sRGB">
      <feFlood flood-opacity="0" result="BackgroundImageFix" />
      <feBlend mode="normal" in="SourceGraphic" in2="BackgroundImageFix" result="shape" />
      <feGaussianBlur stdDeviation="90" result="effect1_foregroundBlur_1_38" />
    </filter>
    <filter id="filter1_f_1_38" x="135.336" y="-30.4885" width="1271.32" height="1329.17" filterUnits="userSpaceOnUse" color-interpolation-filters="sRGB">
      <feFlood flood-opacity="0" result="BackgroundImageFix" />
      <feBlend mode="normal" in="SourceGraphic" in2="BackgroundImageFix" result="shape" />
      <feGaussianBlur stdDeviation="90" result="effect1_foregroundBlur_1_38" />
    </filter>
    <clipPath id="clip0_1_38">
      <rect width="1599" height="1232" fill="white" />
    </clipPath>
  </defs>
</svg>