<svg width="1272" height="934" viewBox="0 0 1272 934" fill="none" xmlns="http://www.w3.org/2000/svg">
<g style="mix-blend-mode:color-dodge" filter="url(#filter0_f_501_466)">
<path d="M561.935 408.28C498.266 334.506 588.463 235.798 641.52 195.666C815.748 95.7638 918.994 510.744 888.881 556.853C858.767 602.962 714.653 626.016 744.766 556.853C774.88 487.69 641.52 500.498 561.935 408.28Z" fill="#7958EF"/>
<path d="M331.378 398.376C365.211 316.774 244.781 258.418 180.336 239.441C180.336 197.69 242.095 188.834 272.975 189.625C313.253 222.835 401.461 286.41 432.072 275.023C470.336 260.79 575.059 329.583 587.142 355.677C599.225 381.771 583.114 488.519 540.823 566.801C498.531 645.083 313.253 564.429 295.128 552.568C277.003 540.707 289.086 500.38 331.378 398.376Z" fill="#9477F5"/>
<path d="M1085.43 557.953C1113.11 485.586 1051.61 315.523 836.384 279.339C790.264 290.194 702.943 316.97 722.621 337.233C747.219 362.561 943.999 630.321 931.7 644.794C919.401 659.268 510.467 644.794 498.168 688.215C485.869 731.635 728.77 861.897 885.58 851.041C1042.39 840.186 1057.76 630.321 1085.43 557.953Z" fill="#5425DA" fill-opacity="0.6"/>
</g>
<defs>
<filter id="filter0_f_501_466" x="0.336029" y="-47.4885" width="1271.32" height="1079.17" filterUnits="userSpaceOnUse" color-interpolation-filters="sRGB">
<feFlood flood-opacity="0" result="BackgroundImageFix"/>
<feBlend mode="normal" in="SourceGraphic" in2="BackgroundImageFix" result="shape"/>
<feGaussianBlur stdDeviation="90" result="effect1_foregroundBlur_501_466"/>
</filter>
</defs>
</svg>
