<svg width="137" height="137" viewBox="0 0 137 137" fill="none" xmlns="http://www.w3.org/2000/svg">
<g clip-path="url(#clip0_67_2118)">
<path d="M10.9564 136.165C5.01876 136.165 0.540039 131.182 0.540039 124.571V9.40661C0.540039 4.65589 5.60295 0.164795 10.9564 0.164795H126.127C131.48 0.164795 136.543 4.65589 136.543 9.40661V46.479C136.543 48.0863 135.236 49.3937 133.628 49.3937C132.021 49.3937 130.714 48.0863 130.714 46.479V33.4539C130.714 32.6688 130.077 32.029 129.289 32.029H7.7944C7.00931 32.029 6.36949 32.6657 6.36949 33.4539V124.574C6.36949 127.968 8.25494 130.335 10.9533 130.335H51.1815C52.7887 130.335 54.0962 131.643 54.0962 133.25C54.0962 134.857 52.7887 136.165 51.1815 136.165H10.9564ZM10.9564 5.99425C8.4744 5.99425 6.56113 7.95079 6.38494 9.24589C6.37567 9.31079 6.37258 9.37261 6.37258 9.43752V24.7715C6.37258 25.5566 7.00931 26.1964 7.79749 26.1964H129.289C130.074 26.1964 130.714 25.5597 130.714 24.7715V9.40661C130.714 9.33861 130.71 9.27061 130.698 9.19952C130.513 7.92298 128.593 5.99425 126.13 5.99425H10.9564ZM23.9042 16.0953C23.9042 14.3923 22.5164 13.0044 20.8133 13.0044C19.1102 13.0044 17.7224 14.3923 17.7224 16.0953C17.7224 17.7984 19.1102 19.1863 20.8133 19.1863C22.5164 19.1863 23.9042 17.7984 23.9042 16.0953ZM36.2678 16.0953C36.2678 14.3923 34.88 13.0044 33.1769 13.0044C31.4738 13.0044 30.086 14.3923 30.086 16.0953C30.086 17.7984 31.4738 19.1863 33.1769 19.1863C34.88 19.1863 36.2678 17.7984 36.2678 16.0953ZM48.6315 16.0953C48.6315 14.3923 47.2436 13.0044 45.5406 13.0044C43.8375 13.0044 42.4496 14.3923 42.4496 16.0953C42.4496 17.7984 43.8375 19.1863 45.5406 19.1863C47.2436 19.1863 48.6315 17.7984 48.6315 16.0953ZM87.342 136.162C64.2034 136.162 45.3767 117.335 45.3767 94.1964C45.3767 71.0579 64.2034 52.2312 87.342 52.2312C88.9492 52.2312 90.2567 53.5386 90.2567 55.1459V89.8568C90.2567 90.6419 90.8934 91.2817 91.6816 91.2817H126.393C128 91.2817 129.307 92.5892 129.307 94.1964C129.307 117.335 110.481 136.162 87.342 136.162ZM83.0023 58.3295C82.9436 58.3295 82.8849 58.3326 82.8262 58.3419C64.8 60.5983 51.2062 76.0126 51.2062 94.1964C51.2062 114.12 67.418 130.332 87.342 130.332C105.526 130.332 120.94 116.738 123.197 98.7122C123.246 98.3073 123.122 97.8993 122.85 97.5933C122.581 97.2873 122.192 97.1112 121.784 97.1112H87.342C85.7347 97.1112 84.4273 95.8037 84.4273 94.1964V59.7544C84.4273 59.3464 84.2511 58.957 83.9451 58.6881C83.6823 58.4562 83.3485 58.3326 83.0023 58.3326V58.3295ZM133.384 84.0799H100.358C98.7505 84.0799 97.4431 82.7724 97.4431 81.1652V47.8606C97.4431 46.2533 98.7505 44.9459 100.358 44.9459C120.634 44.9459 136.528 60.8455 136.54 81.1404C136.54 82.7755 135.232 84.0892 133.625 84.0892C133.57 84.0892 133.409 84.0799 133.384 84.0799ZM104.697 51.0844C104.357 51.0844 104.027 51.205 103.767 51.4306C103.455 51.7026 103.276 52.0952 103.276 52.5062V76.8255C103.276 77.6106 103.912 78.2504 104.701 78.2504H128.98C129.394 78.2504 129.786 78.0712 130.055 77.759C130.327 77.4468 130.448 77.0326 130.389 76.6215C128.463 63.2812 118.22 53.0255 104.905 51.0968C104.837 51.0875 104.769 51.0813 104.701 51.0813L104.697 51.0844ZM59.8638 49.3813C61.4711 49.3813 62.7785 48.0739 62.7785 46.4666C62.7785 44.8593 61.4711 43.5519 59.8638 43.5519H20.8133C19.206 43.5519 17.8986 44.8593 17.8986 46.4666C17.8986 48.0739 19.206 49.3813 20.8133 49.3813H59.8638ZM42.5084 66.7368C44.1156 66.7368 45.4231 65.4293 45.4231 63.8221C45.4231 62.2148 44.1156 60.9073 42.5084 60.9073H20.8133C19.206 60.9073 17.8986 62.2148 17.8986 63.8221C17.8986 65.4293 19.206 66.7368 20.8133 66.7368H42.5084ZM33.8291 84.0922C35.4364 84.0922 36.7438 82.7848 36.7438 81.1775C36.7438 79.5703 35.4364 78.2628 33.8291 78.2628H20.8133C19.206 78.2628 17.8986 79.5703 17.8986 81.1775C17.8986 82.7848 19.206 84.0922 20.8133 84.0922H33.8291ZM33.8291 101.448C35.4364 101.448 36.7438 100.14 36.7438 98.533C36.7438 96.9257 35.4364 95.6183 33.8291 95.6183H20.8133C19.206 95.6183 17.8986 96.9257 17.8986 98.533C17.8986 100.14 19.206 101.448 20.8133 101.448H33.8291ZM38.1687 118.803C39.776 118.803 41.0835 117.496 41.0835 115.888C41.0835 114.281 39.776 112.974 38.1687 112.974H20.8133C19.206 112.974 17.8986 114.281 17.8986 115.888C17.8986 117.496 19.206 118.803 20.8133 118.803H38.1687Z" fill="url(#paint0_linear_67_2118)"/>
</g>
<defs>
<linearGradient id="paint0_linear_67_2118" x1="0.540039" y1="0.164795" x2="138.974" y2="131.26" gradientUnits="userSpaceOnUse">
<stop offset="0.0268624" stop-color="#6F94FE"/>
<stop offset="1" stop-color="#A86DFE"/>
</linearGradient>
<clipPath id="clip0_67_2118">
<rect width="136" height="136" fill="white" transform="translate(0.540039 0.164795)"/>
</clipPath>
</defs>
</svg>
