<svg width="157" height="137" viewBox="0 0 157 137" fill="none" xmlns="http://www.w3.org/2000/svg">
<g clip-path="url(#clip0_67_2113)">
<path d="M9.0587 136.031C4.474 136.031 0.743164 132.3 0.743164 127.715V8.3463C0.743164 3.76159 4.474 0.0307617 9.0587 0.0307617H138.376C142.961 0.0307617 146.692 3.76159 146.692 8.3463V33.215C146.692 35.0574 145.193 36.5561 143.351 36.5561C141.509 36.5561 140.01 35.0574 140.01 33.215V8.3463C140.01 7.44637 139.28 6.71295 138.376 6.71295H9.0587C8.15522 6.71295 7.42536 7.44282 7.42536 8.3463V48.1383C7.42536 49.0382 8.15522 49.7716 9.0587 49.7716H28.9529C29.8529 49.7716 30.5863 49.0418 30.5863 48.1383V23.2696C30.5863 21.4272 32.085 19.9285 33.9274 19.9285H128.431C130.274 19.9285 131.772 21.4272 131.772 23.2696V33.2185C131.772 35.0609 130.274 36.5596 128.431 36.5596C126.589 36.5596 125.09 35.0609 125.09 33.2185V28.2441C125.09 27.3406 124.36 26.6107 123.457 26.6107H38.9018C38.0019 26.6107 37.2685 27.3406 37.2685 28.2441V107.825C37.2685 108.724 37.9983 109.458 38.9018 109.458H68.7485C70.5909 109.458 72.0896 110.957 72.0896 112.799C72.0896 114.641 70.5909 116.14 68.7485 116.14H33.9274C32.085 116.14 30.5863 114.641 30.5863 112.799V87.9303C30.5863 87.0304 29.8564 86.297 28.9529 86.297H9.0587C8.15522 86.297 7.42536 87.0268 7.42536 87.9303V127.722C7.42536 128.622 8.15522 129.356 9.0587 129.356H138.376C139.276 129.356 140.01 128.626 140.01 127.722V92.9047C140.01 91.0624 141.509 89.5636 143.351 89.5636C145.193 89.5636 146.692 91.0624 146.692 92.9047V127.722C146.692 132.307 142.961 136.038 138.376 136.038H9.0587V136.031ZM9.0587 56.4503C8.15522 56.4503 7.42536 57.1802 7.42536 58.0836V77.9779C7.42536 78.8778 8.15522 79.6112 9.0587 79.6112H28.9529C29.8529 79.6112 30.5863 78.8813 30.5863 77.9779V58.0836C30.5863 57.1837 29.8564 56.4503 28.9529 56.4503H9.0587ZM83.6647 121.111C82.786 121.111 81.9251 120.753 81.3015 120.133C80.476 119.308 80.1394 118.092 80.4228 116.966L85.3973 97.0678C85.5461 96.4761 85.8472 95.9411 86.2759 95.5124L136.013 45.7751C136.644 45.1444 137.484 44.7972 138.376 44.7972C139.269 44.7972 140.109 45.1444 140.74 45.7751L155.659 60.6949C156.96 61.9987 156.96 64.1175 155.659 65.4213L105.922 115.159C105.497 115.584 104.958 115.889 104.37 116.034L84.4725 121.008C84.2068 121.076 83.9375 121.111 83.6647 121.111ZM98.5845 93.3264C98.1522 93.3264 97.7342 93.5 97.4295 93.8047L91.9767 99.2645C91.7677 99.4735 91.6189 99.7357 91.548 100.023L88.9155 110.538C88.7773 111.095 88.9403 111.683 89.3442 112.09C89.656 112.402 90.0705 112.569 90.4993 112.569C90.6303 112.569 90.765 112.551 90.8961 112.519L101.412 109.887C101.699 109.816 101.961 109.667 102.17 109.458L107.63 104.005C107.935 103.7 108.108 103.282 108.108 102.85C108.108 102.418 107.935 102.003 107.63 101.695L99.7431 93.8082C99.4384 93.5035 99.0203 93.3299 98.588 93.3299L98.5845 93.3264ZM108.533 83.3775C108.115 83.3775 107.697 83.5369 107.378 83.8558L104.462 86.7717C103.825 87.4095 103.825 88.444 104.462 89.0818L112.349 96.9686C112.668 97.2875 113.086 97.4469 113.504 97.4469C113.922 97.4469 114.34 97.2875 114.659 96.9686L117.575 94.0562C118.213 93.4185 118.213 92.3839 117.575 91.7462L109.688 83.8593C109.37 83.5405 108.951 83.381 108.533 83.381V83.3775ZM138.376 53.5344C137.958 53.5344 137.54 53.6938 137.221 54.0127L114.411 76.8228C113.774 77.4606 113.774 78.4951 114.411 79.1329L122.298 87.0197C122.617 87.3386 123.035 87.498 123.453 87.498C123.871 87.498 124.289 87.3386 124.608 87.0197L147.418 64.2096C148.056 63.5718 148.056 62.5373 147.418 61.8995L139.532 54.0127C139.213 53.6938 138.795 53.5344 138.376 53.5344Z" fill="url(#paint0_linear_67_2113)"/>
</g>
<defs>
<linearGradient id="paint0_linear_67_2113" x1="0.743164" y1="0.0307617" x2="138.925" y2="150.016" gradientUnits="userSpaceOnUse">
<stop offset="0.0268624" stop-color="#6F94FE"/>
<stop offset="1" stop-color="#A86DFE"/>
</linearGradient>
<clipPath id="clip0_67_2113">
<rect width="155.894" height="136" fill="white" transform="translate(0.743164 0.0307617)"/>
</clipPath>
</defs>
</svg>
