<svg width="136" height="136" viewBox="0 0 136 136" fill="none" xmlns="http://www.w3.org/2000/svg">
<g clip-path="url(#clip0_67_2174)">
<path d="M10.4195 136C4.47873 136 0 131.017 0 124.406V9.24182C0 4.40455 4.96709 0 10.4195 0H125.587C130.94 0 136 4.49109 136 9.24182V124.409C136 131.017 131.521 136.003 125.587 136.003H10.4195V136ZM7.25436 31.8642C6.46618 31.8642 5.82945 32.5009 5.82945 33.2891V124.409C5.82945 127.803 7.71491 130.174 10.4195 130.174H125.587C128.285 130.174 130.171 127.803 130.171 124.409V33.2891C130.171 32.5009 129.534 31.8642 128.746 31.8642H7.25436ZM10.4195 5.82945C7.93436 5.82945 6.02109 7.78909 5.84182 9.08109C5.83255 9.146 5.82945 9.20782 5.82945 9.27273V24.6067C5.82945 25.3918 6.46618 26.0316 7.25436 26.0316H128.746C129.531 26.0316 130.171 25.3949 130.171 24.6067V9.24182C130.171 9.17382 130.167 9.10582 130.155 9.03473C129.97 7.75818 128.05 5.82945 125.587 5.82945H10.4195ZM23.3611 15.9305C23.3611 14.2275 21.9733 12.8396 20.2702 12.8396C18.5671 12.8396 17.1793 14.2275 17.1793 15.9305C17.1793 17.6336 18.5671 19.0215 20.2702 19.0215C21.9733 19.0215 23.3611 17.6336 23.3611 15.9305ZM35.7247 15.9305C35.7247 14.2275 34.3369 12.8396 32.6338 12.8396C30.9307 12.8396 29.5429 14.2275 29.5429 15.9305C29.5429 17.6336 30.9307 19.0215 32.6338 19.0215C34.3369 19.0215 35.7247 17.6336 35.7247 15.9305ZM48.0884 15.9305C48.0884 14.2275 46.7005 12.8396 44.9975 12.8396C43.2944 12.8396 41.9065 14.2275 41.9065 15.9305C41.9065 17.6336 43.2944 19.0215 44.9975 19.0215C46.7005 19.0215 48.0884 17.6336 48.0884 15.9305ZM53.2502 99.6756C53.9704 98.2384 53.3831 96.4827 51.9458 95.7656L32.5998 86.0911C32.1455 85.8624 31.8456 85.4142 31.8147 84.9042C31.7838 84.3973 32.0249 83.912 32.4453 83.6307L52.258 70.4233C53.5964 69.5331 53.958 67.7187 53.0678 66.3835C52.5238 65.5705 51.6151 65.0853 50.6353 65.0853C50.0635 65.0853 49.504 65.2553 49.0249 65.5736L22.9902 82.9322C22.1278 83.504 21.6333 84.5024 21.6982 85.5378C21.7631 86.5702 22.3782 87.5005 23.3024 87.9642L49.334 100.98C49.7451 101.184 50.184 101.289 50.6384 101.289C51.7511 101.289 52.7525 100.671 53.2502 99.6787V99.6756ZM86.6567 100.98L112.691 87.9642C113.616 87.5005 114.231 86.5733 114.296 85.5378C114.361 84.5024 113.866 83.504 113.004 82.9322L86.972 65.5767C86.4898 65.2553 85.9304 65.0853 85.3555 65.0853C84.3756 65.0853 83.47 65.5705 82.9291 66.3835C82.0358 67.7218 82.4006 69.5331 83.7389 70.4264L103.552 83.6338C103.975 83.9151 104.213 84.4004 104.182 84.9073C104.151 85.4142 103.851 85.8655 103.397 86.0942L84.0511 95.7687C82.6138 96.4889 82.0296 98.2415 82.7467 99.6787C83.2444 100.674 84.2458 101.292 85.3586 101.292C85.8098 101.292 86.2487 101.187 86.6567 100.983V100.98ZM62.1242 112.188L79.4796 51.442C79.9216 49.8965 79.0191 48.28 77.486 47.8411C77.2325 47.77 76.9698 47.736 76.7071 47.736C75.3935 47.736 74.2251 48.6015 73.8727 49.844L56.5173 110.59C56.0753 112.135 56.9747 113.752 58.514 114.191C58.786 114.265 59.058 114.305 59.3269 114.305C60.6189 114.305 61.7718 113.433 62.1273 112.191L62.1242 112.188Z" fill="url(#paint0_linear_67_2174)"/>
</g>
<defs>
<linearGradient id="paint0_linear_67_2174" x1="0" y1="0" x2="139.5" y2="136" gradientUnits="userSpaceOnUse">
<stop stop-color="#6F95FE"/>
<stop offset="1" stop-color="#AA6DFE"/>
</linearGradient>
<clipPath id="clip0_67_2174">
<rect width="136" height="136" fill="white"/>
</clipPath>
</defs>
</svg>
