<svg width="366" height="35" viewBox="0 0 366 35" fill="none" xmlns="http://www.w3.org/2000/svg">
<g clip-path="url(#clip0_1_62)" filter="url(#filter0_d_1_62)">
<path d="M111.436 20.6492V16.0997H124.56V10.3246H111.436V5.77513H124.747L127.268 0.0263584H109.994C107.731 0.0263584 105.896 1.92944 105.896 4.27797V22.1464C105.896 24.4949 107.731 26.3993 109.994 26.3993H127.268L124.747 20.6492H111.436ZM92.8432 20.7573C90.6694 20.7573 88.9463 20.1062 87.674 18.8028C86.4017 17.4994 85.7668 15.7189 85.7668 13.4626C85.7668 11.0218 86.4017 9.11211 87.674 7.73357C88.9463 6.35502 90.6694 5.66575 92.8432 5.66575C95.0171 5.66575 96.8608 6.32603 98.1331 7.64658L101.902 3.70995C99.5667 1.23621 96.5471 0 92.8432 0C88.898 0 85.815 1.30342 83.593 3.91027C81.4191 6.51844 80.3322 9.70122 80.3322 13.4626C80.3322 17.2239 81.4191 20.3065 83.593 22.7631C85.8303 25.1868 88.9146 26.3993 92.8432 26.3993C96.4506 26.3993 99.4219 25.287 101.757 23.065L97.9401 19.0532C96.603 20.1906 94.9041 20.7573 92.8432 20.7573ZM71.3029 3.76135C71.294 3.73499 71.2813 3.70863 71.2711 3.68227C70.3861 1.47475 68.3087 0.0355839 66.0028 0.0355839C64.1172 0.0355839 62.384 0.996349 61.3288 2.55018C61.0799 2.92315 60.8653 3.32643 60.6977 3.76135L51.9681 26.4098H57.8522L59.2794 22.7038H72.6742L74.1522 26.4098H80.0363L71.3029 3.76135ZM61.5244 16.9274L64.1045 10.1757L65.9774 5.32836L67.5685 9.44555L70.4585 16.9274H61.5244ZM50.0723 2.74523C47.7143 0.933089 44.3558 0.0237226 39.9903 0.0237226H33.5958C31.573 0.0237226 29.8931 1.54592 29.5592 3.54785C29.5211 3.78244 29.4982 4.02757 29.4982 4.27666V26.3993H35.0395V20.2657H35.0586L35.0395 5.77513H39.9903C40.3903 5.77513 40.7751 5.78172 41.1446 5.80149C45.3132 5.97809 47.5988 7.17213 47.9988 9.3757C48.0432 9.6116 48.0648 9.86069 48.0648 10.119C48.0648 11.4541 47.5036 12.4873 46.3887 13.2135C45.0516 14.0807 42.9184 14.5156 39.9903 14.5156H38.4311L35.0738 20.2657H39.9903C41.2512 20.2657 42.4296 20.1906 43.5228 20.0364C46.2236 19.6673 48.414 18.8357 50.085 17.5442C52.4303 15.7294 53.6048 13.2557 53.6048 10.119C53.6048 6.98235 52.4265 4.56133 50.0723 2.74523ZM9.29621 7.76915C9.33303 5.89375 13.0204 5.47069 14.7664 5.44829C15.9955 5.44829 19.5636 5.7725 22.3698 7.79946L25.3969 3.67964C20.5083 -1.49321 4.01905 -2.13635 4.15237 8.07623C4.25522 13.8421 9.11463 15.4974 14.1975 16.0233C18.5528 16.3805 20.4156 17.191 20.4156 18.4509C20.5578 21.0657 11.084 21.7734 7.02713 18.6249L4 22.7447C6.11163 25.2791 11.291 26.4243 14.6305 26.3993C20.3584 26.3808 25.3766 24.5727 25.5378 18.2466C25.3372 7.82582 9.20732 12.2474 9.29621 7.76915Z" fill="url(#paint0_linear_1_62)"/>
<path d="M150.068 18.4508C150.068 17.1909 148.205 16.3804 143.85 16.0232C138.767 15.4974 133.908 13.8421 133.805 8.07617C133.673 -2.13508 150.161 -1.49194 155.05 3.6809L152.023 7.80073C149.217 5.77376 145.649 5.44955 144.42 5.44955C142.674 5.47196 138.987 5.89501 138.95 7.77041C138.861 12.2487 154.991 7.82709 155.19 18.2479C155.03 24.5739 150.011 26.3821 144.283 26.4006C140.945 26.4269 135.764 25.2803 133.652 22.746L136.679 18.6261C140.736 21.7746 150.21 21.0669 150.068 18.4522V18.4508Z" fill="white"/>
<path d="M172.322 0.0263672C176.474 0.0263672 179.774 1.29553 182.22 3.83384C184.731 6.33789 185.987 9.46532 185.987 13.2122C185.987 16.959 184.731 20.0865 182.22 22.6419C179.758 25.146 176.459 26.398 172.322 26.398C168.185 26.398 164.862 25.146 162.4 22.6419C159.905 20.0522 158.658 16.9089 158.658 13.2122C158.658 9.51541 159.905 6.37216 162.4 3.83384C164.845 1.29553 168.153 0.0263672 172.322 0.0263672ZM166.585 18.6051C168.226 19.9678 170.139 20.6492 172.322 20.6492C174.505 20.6492 176.474 19.9678 178.035 18.6051C179.643 17.2081 180.447 15.4105 180.447 13.2135C180.447 11.0165 179.642 9.21887 178.035 7.87196C176.492 6.47496 174.587 5.77646 172.322 5.77646C170.057 5.77646 168.194 6.47496 166.585 7.87196C164.993 9.26895 164.197 11.0495 164.197 13.2135C164.197 15.3775 164.993 17.158 166.585 18.6051Z" fill="white"/>
<path d="M190.276 22.1464V0.0263672H195.816V20.6492H209.442L211.648 26.3993H194.374C192.111 26.3993 190.276 24.4949 190.276 22.1464Z" fill="white"/>
<path d="M211.995 13.2122V0.0263672H217.559V12.1657C217.559 17.8223 219.807 20.6505 224.305 20.6505C228.803 20.6505 231.075 17.8223 231.075 12.1657V0.0263672H236.615V13.2135C236.615 17.0645 235.573 20.2248 233.488 22.6946C231.403 25.1657 228.342 26.4006 224.304 26.4006C220.266 26.4006 217.204 25.1657 215.12 22.6946C213.035 20.2248 211.992 17.0645 211.992 13.2135L211.995 13.2122Z" fill="white"/>
<path d="M255.466 26.3993H249.926L250.008 5.83313C250.02 2.62267 252.532 0.0263672 255.625 0.0263672H264.503V5.77646H255.468V26.3993H255.466Z" fill="white"/>
<path d="M247.332 5.77514H240.817V0.0263672H250.563L247.332 5.77646V5.77514Z" fill="white"/>
<path d="M273.944 26.3993H268.404V0.0263672H273.944V26.3993Z" fill="white"/>
<path d="M291.646 0.0263672C295.798 0.0263672 299.098 1.29553 301.544 3.83384C304.055 6.33789 305.311 9.46532 305.311 13.2122C305.311 16.959 304.055 20.0865 301.544 22.6419C299.082 25.146 295.783 26.398 291.646 26.398C287.509 26.398 284.186 25.146 281.724 22.6419C279.229 20.0522 277.982 16.9089 277.982 13.2122C277.982 9.51541 279.229 6.37216 281.724 3.83384C284.169 1.29553 287.477 0.0263672 291.646 0.0263672ZM285.909 18.6051C287.55 19.9678 289.463 20.6492 291.646 20.6492C293.829 20.6492 295.798 19.9678 297.359 18.6051C298.967 17.2081 299.771 15.4105 299.771 13.2135C299.771 11.0165 298.966 9.21887 297.359 7.87196C295.816 6.47496 293.911 5.77646 291.646 5.77646C289.381 5.77646 287.518 6.47496 285.909 7.87196C284.317 9.26895 283.521 11.0495 283.521 13.2135C283.521 15.3775 284.317 17.158 285.909 18.6051Z" fill="white"/>
<path d="M314.76 26.3992H309.219V4.04201C309.219 2.20219 310.402 0.533699 312.13 0.125144C313.553 -0.212244 314.997 0.328103 315.886 1.46152L328.276 17.2502V0.0262995H333.816V22.5021C333.816 24.6543 332.135 26.3992 330.061 26.3992C328.933 26.3992 327.863 25.8721 327.15 24.9627L314.76 9.17399V26.3979V26.3992Z" fill="white"/>
<path d="M356.46 18.4509C356.46 17.191 354.105 16.3804 349.394 16.0233C345.733 15.7162 342.894 14.8912 340.875 13.5443C338.856 12.1987 337.847 10.376 337.847 8.07489C337.847 5.48518 338.926 3.49643 341.084 2.10734C343.243 0.719569 346.218 0.0250244 350.01 0.0250244C352.111 0.0250244 354.31 0.374274 356.609 1.07277C358.988 1.80554 360.622 2.67405 361.509 3.67962L358.234 8.12629C357.577 7.39353 356.395 6.82287 354.689 6.41431C352.9 5.98862 351.34 5.77512 350.011 5.77512C348.435 5.77512 347.134 5.87792 346.109 6.08219C345.083 6.28647 344.377 6.53424 343.991 6.82287C343.605 7.11281 343.412 7.42779 343.412 7.76782C343.412 9.0462 345.71 9.91471 350.306 10.3747C358.102 11.056 362.001 13.68 362.001 18.2453C362.001 20.7493 360.975 22.7341 358.923 24.1997C356.871 25.6652 353.852 26.398 349.862 26.398C347.614 26.398 345.398 26.0658 343.215 25.4016C340.917 24.7031 339.3 23.8175 338.365 22.7434L341.639 18.2967C342.312 19.0466 343.486 19.6173 345.16 20.0087C346.95 20.4344 348.516 20.6479 349.864 20.6479C354.262 20.6479 356.463 19.9151 356.463 18.4496L356.46 18.4509Z" fill="white"/>
</g>
<defs>
<filter id="filter0_d_1_62" x="0" y="0" width="366" height="34.4098" filterUnits="userSpaceOnUse" color-interpolation-filters="sRGB">
<feFlood flood-opacity="0" result="BackgroundImageFix"/>
<feColorMatrix in="SourceAlpha" type="matrix" values="0 0 0 0 0 0 0 0 0 0 0 0 0 0 0 0 0 0 127 0" result="hardAlpha"/>
<feOffset dy="4"/>
<feGaussianBlur stdDeviation="2"/>
<feComposite in2="hardAlpha" operator="out"/>
<feColorMatrix type="matrix" values="0 0 0 0 0 0 0 0 0 0 0 0 0 0 0 0 0 0 0.37 0"/>
<feBlend mode="normal" in2="BackgroundImageFix" result="effect1_dropShadow_1_62"/>
<feBlend mode="normal" in="SourceGraphic" in2="effect1_dropShadow_1_62" result="shape"/>
</filter>
<linearGradient id="paint0_linear_1_62" x1="4" y1="13.2056" x2="127.268" y2="13.2056" gradientUnits="userSpaceOnUse">
<stop stop-color="#6E95FF"/>
<stop offset="1" stop-color="#A96CFE"/>
</linearGradient>
<clipPath id="clip0_1_62">
<rect width="358" height="26.4098" fill="white" transform="translate(4)"/>
</clipPath>
</defs>
</svg>
